<?xml version="1.0" encoding="utf-8"?>
<svg viewBox="0 0 500 500" xmlns="http://www.w3.org/2000/svg">
  <path d="M 340 158.08 Q 340 139.8 332.73 123.75 Q 325.47 107.69 313.16 95.74 Q 300.86 83.79 284.45 76.87 Q 268.05 69.96 250 69.96 Q 231.25 69.96 214.84 76.99 Q 198.44 84.02 186.25 96.21 Q 174.06 108.4 167.03 124.8 Q 160 141.21 160 159.96 Q 160 166.05 155.55 170.5 Q 151.09 174.96 145 174.96 Q 137.5 174.96 133.75 169.68 Q 130 164.41 130 157.61 Q 130 133.24 139.73 111.79 Q 149.45 90.35 165.98 74.41 Q 182.5 58.47 204.18 49.22 Q 225.86 39.96 250 39.96 Q 274.14 39.96 295.82 49.22 Q 317.5 58.47 334.02 74.41 Q 350.55 90.35 360.27 111.79 Q 370 133.24 370 157.61 Q 370 176.6 366.01 190.78 Q 362.03 204.96 354.53 216.68 Q 347.03 228.4 336.37 238.94 Q 325.7 249.49 312.34 261.44 Q 305.55 267.54 298.98 273.28 Q 292.42 279.02 286.33 285.58 Q 278.59 294.02 274.37 301.87 Q 270.16 309.72 268.05 317.81 Q 265.94 325.9 265.47 335.04 Q 265 344.18 265 354.96 Q 265 361.05 260.55 365.5 Q 256.09 369.96 250 369.96 Q 244.84 369.96 241.91 368.08 Q 238.98 366.21 237.46 363.04 Q 235.94 359.88 235.47 355.9 Q 235 351.91 235 347.93 L 235 339.96 Q 235 321.44 239.45 307.26 Q 243.91 293.08 251.29 281.72 Q 258.67 270.35 268.16 261.09 Q 277.66 251.83 287.5 243.28 Q 297.34 234.72 306.72 226.29 Q 316.09 217.85 323.48 207.89 Q 330.86 197.93 335.43 185.86 Q 340 173.79 340 158.08 Z M 227.5 437.46 Q 227.5 428.08 234.06 421.52 Q 240.62 414.96 250 414.96 Q 259.37 414.96 265.94 421.52 Q 272.5 428.08 272.5 437.46 Q 272.5 446.83 265.94 453.4 Q 259.37 459.96 250 459.96 Q 240.62 459.96 234.06 453.4 Q 227.5 446.83 227.5 437.46 Z" style="fill: rgb(255, 255, 255);"/>
</svg>