<?xml version="1.0" encoding="utf-8"?>
<svg viewBox="0 0 24 24" fill="none" stroke="currentColor" stroke-width="2" stroke-linecap="round" stroke-linejoin="round" xmlns="http://www.w3.org/2000/svg">
  <path d="M21 15v4a2 2 0 0 1-2 2H5a2 2 0 0 1-2-2v-4" style="stroke-miterlimit: 3.97; stroke: rgb(255, 250, 250);" transform="matrix(0.9999999999999999, 0, 0, 0.9999999999999999, -2.220446049250313e-16, -4.440892098500626e-16)" id="path-0"/>
  <path d="M 21 16.904 L 21 4.532 C 21 3.427 20.105 2.532 19 2.532 L 5 2.532 C 3.895 2.532 3 3.427 3 4.532 L 3 15.117" style="stroke-miterlimit: 3.97; stroke: rgb(255, 255, 255);" id="path-1" transform="matrix(0.9999999999999999, 0, 0, 0.9999999999999999, -2.220446049250313e-16, 0)"/>
  <path d="M 9.144 10.209 L 15.906 14.484 L 13.323 21.401 L 4.965 21.401 L 2.382 14.484 Z" style="stroke-width: 1px; stroke: none; fill: rgb(255, 255, 255); transform-origin: 9.189px 15.859px;"/>
  <path d="M 13.792 5.059 L 20.554 10.157 L 17.971 18.406 L 9.613 18.406 L 7.03 10.157 Z" style="stroke-width: 1px; stroke: none; fill: rgb(255, 255, 255); transform-origin: 13.837px 11.797px;" transform="matrix(1, 0, -0.008880000561, 1, 1.228037071788, 3.319283033306)"/>
  <rect x="3.633" y="14.178" width="17.011" height="6.416" style="stroke-width: 1px; stroke: none; fill: rgb(255, 255, 255);" rx="0.089" ry="0.089" transform="matrix(0.9999999999999999, 0, 0, 0.9999999999999999, -2.220446049250313e-16, 0)"/>
</svg>